<svg height="24" width="24" xmlns="http://www.w3.org/2000/svg"><g transform="translate(0 -1028.4)"><path d="m5 1032.4c-1.1046 0-2 .9-2 2v14c0 1.1.8954 2 2 2h6 2 6c1.105 0 2-.9 2-2v-14c0-1.1-.895-2-2-2h-6-2z" fill="#bdc3c7"/><path d="m5 3c-1.1046 0-2 .8954-2 2v14c0 1.105.8954 2 2 2h6 2 6c1.105 0 2-.895 2-2v-14c0-1.1046-.895-2-2-2h-6-2z" fill="#ecf0f1" transform="translate(0 1028.4)"/><path d="m5 3c-1.1046 0-2 .8954-2 2v3 1h18v-1-3c0-1.1046-.895-2-2-2h-6-2z" fill="#e74c3c" transform="translate(0 1028.4)"/><path d="m7 5.5a1.5 1.5 0 1 1 -3 0 1.5 1.5 0 1 1 3 0z" fill="#c0392b" transform="translate(.5 1028.4)"/><path d="m7 5.5a1.5 1.5 0 1 1 -3 0 1.5 1.5 0 1 1 3 0z" fill="#c0392b" transform="translate(12.5 1028.4)"/><g fill="#bdc3c7"><path d="m5 1039.4v2h2v-2zm3 0v2h2v-2zm3 0v2h2v-2zm3 0v2h2v-2zm3 0v2h2v-2z"/><path d="m5 1042.4v2h2v-2zm3 0v2h2v-2zm3 0v2h2v-2zm3 0v2h2v-2zm3 0v2h2v-2z"/><path d="m5 1045.4v2h2v-2zm3 0v2h2v-2zm3 0v2h2v-2zm3 0v2h2v-2zm3 0v2h2v-2z"/></g><path d="m6 1c-.5523 0-1 .4477-1 1v3c0 .5523.4477 1 1 1s1-.4477 1-1v-3c0-.5523-.4477-1-1-1zm12 0c-.552 0-1 .4477-1 1v3c0 .5523.448 1 1 1s1-.4477 1-1v-3c0-.5523-.448-1-1-1z" fill="#95a5a6" transform="translate(0 1028.4)"/><path d="m6 1029.4c-.5523 0-1 .4-1 1v2h2v-2c0-.6-.4477-1-1-1zm12 0c-.552 0-1 .4-1 1v2h2v-2c0-.6-.448-1-1-1z" fill="#bdc3c7"/></g></svg>